# xmcd
#
# Track frame offsets: 
#        150
#        16214
#        30700
#        50671
#        67690
#        88472
#        104346
#        125749
#        151475
#        169438
#        191027
#        203834
#        226736
#        251194
#
# Disc length: 3657 seconds
#
# Revision: 0
# Processed by: cddbd v1.5.2PL0 Copyright (c) Steve Scherf et al.
# Submitted via: ExactAudioCopyFreeDBPlugin 1.0
#
DISCID=c50e470e
DTITLE=Various Artists - A Tribute to Billie Holiday
DYEAR=2011
DGENRE=Blues
TTITLE0=Angela Bassett - Introduction
TTITLE1=Deborah Cox - Fine and Mellow
TTITLE2=Shelby Lynne - You've Changed
TTITLE3=Erin Boheme - Them There Eyes
TTITLE4=Renee Olstead - Good Morning Heartache
TTITLE5=A.J. Croce - Ain't Nobody's Business If I Do
TTITLE6=Patti Austin - Body and Soul
TTITLE7=Rocco DeLuca - Lady Sings the Blues
TTITLE8=Esperanza Spalding - I'll Look Around
TTITLE9=Kenneth 'Babyface' Edmonds - Strange Fruit
TTITLE10=Freda Payne - Billie's Blues
TTITLE11=Boz Scaggs - Do Nothing Till You Hear...
TTITLE12=Rickie Lee Jones - They Can't Take That Away...
TTITLE13=Brownstone - God Bless the Child
EXTD=
EXTT0=
EXTT1=
EXTT2=
EXTT3=
EXTT4=
EXTT5=
EXTT6=
EXTT7=
EXTT8=
EXTT9=
EXTT10=
EXTT11=
EXTT12=
EXTT13=
PLAYORDER=
